<svg width="33" height="32" viewBox="0 0 33 32" fill="none" xmlns="http://www.w3.org/2000/svg">
<g id="32/Heart">
<path id="Vector 19 (Stroke)" d="M17.417 7.36914C19.7413 4.72831 23.6951 4.22282 26.6143 6.21973L26.8936 6.4209C29.8787 8.68232 30.5407 12.8733 28.457 15.9346L28.2461 16.2275L22.1865 24.2275C20.8562 25.9837 18.7764 27.0105 16.5732 27C14.5077 26.9901 12.5589 26.0697 11.2412 24.4971L10.9863 24.1738L5.0459 16.1738C2.81326 13.1669 3.35217 8.95792 6.20996 6.60254L6.49316 6.37988C9.4377 4.19359 13.5363 4.66495 15.916 7.36914C16.1059 7.58481 16.3797 7.708 16.667 7.70801C16.9541 7.7079 17.2272 7.58466 17.417 7.36914Z" stroke="#D1D5DB" stroke-width="2" stroke-linecap="round" stroke-linejoin="round"/>
</g>
</svg>
