<svg width="40" height="40" viewBox="0 0 40 40" fill="none" xmlns="http://www.w3.org/2000/svg">
<g id="room" opacity="0.2">
<g id="Vector">
<path d="M19.9997 3.33398C13.5497 3.33398 8.33301 8.55065 8.33301 15.0007C8.33301 23.7507 19.9997 36.6673 19.9997 36.6673C19.9997 36.6673 31.6663 23.7507 31.6663 15.0007C31.6663 8.55065 26.4497 3.33398 19.9997 3.33398ZM11.6663 15.0007C11.6663 10.4007 15.3997 6.66732 19.9997 6.66732C24.5997 6.66732 28.333 10.4007 28.333 15.0007C28.333 19.8007 23.533 26.984 19.9997 31.4673C16.533 27.0173 11.6663 19.7507 11.6663 15.0007Z" fill="black"/>
<path d="M19.9997 19.1673C22.3009 19.1673 24.1663 17.3018 24.1663 15.0007C24.1663 12.6995 22.3009 10.834 19.9997 10.834C17.6985 10.834 15.833 12.6995 15.833 15.0007C15.833 17.3018 17.6985 19.1673 19.9997 19.1673Z" fill="black"/>
</g>
</g>
</svg>
