<svg width="48" height="48" viewBox="0 0 48 48" fill="none" xmlns="http://www.w3.org/2000/svg">
<g id="search" opacity="0.2">
<path id="Vector" d="M31.5098 28.5078H29.9298L29.3698 27.9678C31.3298 25.6878 32.5098 22.7278 32.5098 19.5078C32.5098 12.3278 26.6898 6.50781 19.5098 6.50781C12.3298 6.50781 6.50977 12.3278 6.50977 19.5078C6.50977 26.6878 12.3298 32.5078 19.5098 32.5078C22.7298 32.5078 25.6898 31.3278 27.9698 29.3678L28.5098 29.9278V31.5078L38.5098 41.4878L41.4898 38.5078L31.5098 28.5078ZM19.5098 28.5078C14.5298 28.5078 10.5098 24.4878 10.5098 19.5078C10.5098 14.5278 14.5298 10.5078 19.5098 10.5078C24.4898 10.5078 28.5098 14.5278 28.5098 19.5078C28.5098 24.4878 24.4898 28.5078 19.5098 28.5078Z" fill="black"/>
</g>
</svg>
