<svg width="32" height="32" viewBox="0 0 32 32" fill="none" xmlns="http://www.w3.org/2000/svg">
<g id="32/User">
<path id="Rectangle 4" d="M20.6777 18.7031C24.8482 17.5116 28.9997 20.6432 29 24.9805C29 27.2001 27.2001 29 24.9805 29H7.01953C4.79985 29 3 27.2001 3 24.9805C3.00028 20.7787 6.89648 17.7088 10.9316 18.6045L11.3223 18.7031L14.7871 19.6934C15.4809 19.8916 16.2111 19.9163 16.9141 19.7676L17.2129 19.6934L20.6777 18.7031Z" stroke="#D1D5DB" stroke-width="2"/>
<circle id="Ellipse 9" cx="16" cy="9" r="6" stroke="#D1D5DB" stroke-width="2"/>
<path id="Vector" d="M15 9C15 9.55228 15.4477 10 16 10C16.5523 10 17 9.55228 17 9C17 8.44772 17.4477 8 18 8C18.5523 8 19 8.44772 19 9C19 10.6569 17.6569 12 16 12C14.3431 12 13 10.6569 13 9C13 8.44772 13.4477 8 14 8C14.5523 8 15 8.44772 15 9Z" fill="#D1D5DB"/>
</g>
</svg>
